<svg width="65" height="65" viewBox="0 0 65 65" fill="none" xmlns="http://www.w3.org/2000/svg">
<path d="M5.41699 17.543C5.41699 15.6574 5.41699 14.7145 6.00278 14.1288C6.58857 13.543 7.53137 13.543 9.41699 13.543H55.5837C57.4693 13.543 58.4121 13.543 58.9979 14.1288C59.5837 14.7145 59.5837 15.6574 59.5837 17.543V26.0846C59.5837 26.556 59.5837 26.7917 59.4372 26.9382C59.2908 27.0846 59.0551 27.0846 58.5837 27.0846H6.41699C5.94559 27.0846 5.70989 27.0846 5.56344 26.9382C5.41699 26.7917 5.41699 26.556 5.41699 26.0846V17.543Z" fill="black"/>
<path fill-rule="evenodd" clip-rule="evenodd" d="M5.41699 55.5833C5.41699 57.4689 5.41699 58.4118 6.00278 58.9975C6.58857 59.5833 7.53137 59.5833 9.41699 59.5833H55.5837C57.4693 59.5833 58.4121 59.5833 58.9979 58.9975C59.5837 58.4118 59.5837 57.469 59.5837 55.5833V33.5C59.5837 33.0286 59.5837 32.7929 59.4372 32.6464C59.2908 32.5 59.0551 32.5 58.5837 32.5H6.41699C5.94559 32.5 5.70989 32.5 5.56344 32.6464C5.41699 32.7929 5.41699 33.0286 5.41699 33.5V55.5833ZM18.9587 38.9167C18.9587 38.4453 18.9587 38.2096 19.1051 38.0631C19.2516 37.9167 19.4873 37.9167 19.9587 37.9167H28.792C29.2634 37.9167 29.4991 37.9167 29.6455 38.0631C29.792 38.2096 29.792 38.4453 29.792 38.9167V42.3333C29.792 42.8047 29.792 43.0404 29.6455 43.1869C29.4991 43.3333 29.2634 43.3333 28.792 43.3333H19.9587C19.4873 43.3333 19.2516 43.3333 19.1051 43.1869C18.9587 43.0404 18.9587 42.8047 18.9587 42.3333V38.9167ZM19.1051 48.8964C18.9587 49.0429 18.9587 49.2786 18.9587 49.75V53.1667C18.9587 53.6381 18.9587 53.8738 19.1051 54.0202C19.2516 54.1667 19.4873 54.1667 19.9587 54.1667H28.792C29.2634 54.1667 29.4991 54.1667 29.6455 54.0202C29.792 53.8738 29.792 53.6381 29.792 53.1667V49.75C29.792 49.2786 29.792 49.0429 29.6455 48.8964C29.4991 48.75 29.2634 48.75 28.792 48.75H19.9587C19.4873 48.75 19.2516 48.75 19.1051 48.8964ZM35.2087 38.9167C35.2087 38.4453 35.2087 38.2096 35.3551 38.0631C35.5016 37.9167 35.7373 37.9167 36.2087 37.9167H45.042C45.5134 37.9167 45.7491 37.9167 45.8955 38.0631C46.042 38.2096 46.042 38.4453 46.042 38.9167V42.3333C46.042 42.8047 46.042 43.0404 45.8955 43.1869C45.7491 43.3333 45.5134 43.3333 45.042 43.3333H36.2087C35.7373 43.3333 35.5016 43.3333 35.3551 43.1869C35.2087 43.0404 35.2087 42.8047 35.2087 42.3333V38.9167ZM35.3551 48.8964C35.2087 49.0429 35.2087 49.2786 35.2087 49.75V53.1667C35.2087 53.6381 35.2087 53.8738 35.3551 54.0202C35.5016 54.1667 35.7373 54.1667 36.2087 54.1667H45.042C45.5134 54.1667 45.7491 54.1667 45.8955 54.0202C46.042 53.8738 46.042 53.6381 46.042 53.1667V49.75C46.042 49.2786 46.042 49.0429 45.8955 48.8964C45.7491 48.75 45.5134 48.75 45.042 48.75H36.2087C35.7373 48.75 35.5016 48.75 35.3551 48.8964Z" fill="black"/>
<path d="M18.958 8.125L18.958 16.25" stroke="black" stroke-width="2" stroke-linecap="round"/>
<path d="M46.042 8.125L46.042 16.25" stroke="black" stroke-width="2" stroke-linecap="round"/>
</svg>
