<svg width="42" height="41" viewBox="0 0 42 41" fill="none" xmlns="http://www.w3.org/2000/svg">
<circle cx="3.13477" cy="2.5" r="2.5" fill="#F2D293"/>
<circle cx="12.1348" cy="2.5" r="2.5" fill="#F2D293"/>
<circle cx="21.1348" cy="2.5" r="2.5" fill="#F2D293"/>
<circle cx="39.1348" cy="2.5" r="2.5" fill="#F2D293"/>
<circle cx="30.1348" cy="2.5" r="2.5" fill="#F2D293"/>
<circle cx="3.13477" cy="11.5" r="2.5" fill="#F2D293"/>
<circle cx="12.1348" cy="11.5" r="2.5" fill="#F2D293"/>
<circle cx="21.1348" cy="11.5" r="2.5" fill="#F2D293"/>
<circle cx="39.1348" cy="11.5" r="2.5" fill="#F2D293"/>
<circle cx="30.1348" cy="11.5" r="2.5" fill="#F2D293"/>
<circle cx="3.13477" cy="20.5" r="2.5" fill="#F2D293"/>
<circle cx="12.1348" cy="20.5" r="2.5" fill="#F2D293"/>
<circle cx="21.1348" cy="20.5" r="2.5" fill="#F2D293"/>
<circle cx="39.1348" cy="20.5" r="2.5" fill="#F2D293"/>
<circle cx="30.1348" cy="20.5" r="2.5" fill="#F2D293"/>
<circle cx="3.13477" cy="29.5" r="2.5" fill="#F2D293"/>
<circle cx="12.1348" cy="29.5" r="2.5" fill="#F2D293"/>
<circle cx="21.1348" cy="29.5" r="2.5" fill="#F2D293"/>
<circle cx="39.1348" cy="29.5" r="2.5" fill="#F2D293"/>
<circle cx="30.1348" cy="29.5" r="2.5" fill="#F2D293"/>
<circle cx="3.13477" cy="38.5" r="2.5" fill="#F2D293"/>
<circle cx="12.1348" cy="38.5" r="2.5" fill="#F2D293"/>
<circle cx="21.1348" cy="38.5" r="2.5" fill="#F2D293"/>
<circle cx="39.1348" cy="38.5" r="2.5" fill="#F2D293"/>
<circle cx="30.1348" cy="38.5" r="2.5" fill="#F2D293"/>
</svg>
