<svg width="58" height="58" viewBox="0 0 58 58" fill="none" xmlns="http://www.w3.org/2000/svg">
<path fill-rule="evenodd" clip-rule="evenodd" d="M49.0272 21.0042H26.3709H20.4803L20.957 23.3171C29.7741 23.9071 36.2736 27.6925 39.4644 31.3789C40.6916 32.7949 41.5506 34.3101 41.999 35.7874C42.6551 37.9492 42.4946 40.0544 41.4657 41.9046C41.3335 42.1453 41.1872 42.3766 41.0314 42.6032C41.2249 43.0186 41.3713 43.4339 41.4893 43.8351C41.527 43.9437 41.5648 44.057 41.5931 44.1702H41.5978C41.7489 44.7036 41.8244 45.2228 41.8244 45.7373C41.8244 45.9167 41.8149 45.86 41.8055 46.0158L41.8102 46.1432H41.8244C41.8244 46.0583 41.8244 46.0063 41.8244 46.1432C41.8244 46.2754 41.8197 46.4123 41.8102 46.5492H48.9989L54.9225 21.0137H49.0272V21.0042ZM1.5057 51.3919C12.7819 51.373 24.0534 51.3589 35.3296 51.3919C35.9998 51.3966 36.5521 51.9442 36.5521 52.6144C36.5521 54.4364 35.7874 58.0047 31.6668 58.0047C22.8356 58.0047 14.0044 58.0047 5.17318 58.0047C1.05257 58.0047 0.287923 54.4411 0.287923 52.6144C0.283203 51.9395 0.835449 51.3919 1.5057 51.3919ZM26.758 32.6014C27.7964 32.6014 28.6366 33.4416 28.6366 34.48C28.6366 35.5184 27.7964 36.3586 26.758 36.3586C25.7196 36.3586 24.8794 35.5184 24.8794 34.48C24.8794 33.4416 25.7196 32.6014 26.758 32.6014ZM10.3747 32.7336C11.4131 32.7336 12.2533 33.5737 12.2533 34.6121C12.2533 35.6506 11.4131 36.4907 10.3747 36.4907C9.33626 36.4907 8.49609 35.6506 8.49609 34.6121C8.49609 33.5737 9.33626 32.7336 10.3747 32.7336ZM18.4979 30.9399C19.5363 30.9399 20.3765 31.7801 20.3765 32.8185C20.3765 33.8569 19.5363 34.6971 18.4979 34.6971C17.4595 34.6971 16.6193 33.8569 16.6193 32.8185C16.624 31.7801 17.4642 30.9399 18.4979 30.9399ZM33.7342 40.6585H3.49756C1.5765 40.6585 0 39.0868 0 37.1657C0 32.1908 9.91683 28.5752 18.2383 28.4902C34.6216 28.325 41.9707 40.6585 33.7342 40.6585ZM36.4718 45.4494C36.5238 45.5391 36.5521 45.6287 36.5521 45.7326C36.5521 45.7939 36.5474 45.8647 36.5474 45.9355C36.5521 46.0063 36.5521 46.0724 36.5521 46.1385C36.5521 46.2376 36.5238 46.332 36.4718 46.4217C36.1934 47.6348 35.0794 49.2207 31.6668 49.2207C22.8356 49.2207 14.0044 49.2207 5.17318 49.2207C1.75586 49.2207 0.646647 47.6348 0.368164 46.4217C0.316243 46.332 0.287923 46.2424 0.287923 46.1385C0.287923 46.0771 0.292643 46.0063 0.292643 45.9355C0.287923 45.8647 0.287923 45.7987 0.287923 45.7326C0.287923 45.6335 0.316243 45.5391 0.368164 45.4494C0.646647 44.2363 1.75586 42.6504 5.17318 42.6504H18.8944L23.9543 47.8755L28.9811 42.6504H31.6715C35.0841 42.6551 36.1934 44.241 36.4718 45.4494ZM41.8055 46.1385C41.8149 46.5492 41.8197 46.2896 41.8197 46.1385H41.8055ZM20.5228 10.5257H35.3485L36.9627 3.35124C37.43 1.61898 38.7894 0.651367 41.1872 0C43.2215 0 45.2559 0 47.2855 0C48.2153 0.184082 48.7534 0.830729 48.895 1.94466C48.895 2.57243 48.895 3.19548 48.895 3.82324C48.5882 4.84749 47.9699 5.26286 47.0164 5.43278H41.9282L40.8473 10.5257H54.8753C56.0553 10.5257 57.0135 11.4886 57.0135 12.6639V15.0947C57.0135 16.2747 56.0506 17.2329 54.8753 17.2329H20.5228C19.3428 17.2329 18.3846 16.27 18.3846 15.0947V12.6639C18.3846 11.4886 19.3475 10.5257 20.5228 10.5257ZM40.7718 57.5327H43.3254H44.798C46.5161 57.1646 47.7103 56.3527 48.2153 54.6488L48.6024 50.599H41.4987C41.7111 51.2362 41.8244 51.9111 41.8244 52.6144C41.8244 53.9172 41.5837 55.7438 40.7718 57.5327Z" fill="black"/>
</svg>
