<svg width="155" height="156" viewBox="0 0 155 156" fill="none" xmlns="http://www.w3.org/2000/svg">
<path d="M144.239 101.442C157.877 115.142 157.895 138.038 140.323 146.092C139.145 146.632 137.955 147.149 136.754 147.643C124.727 152.593 111.843 155.126 98.8374 155.097C85.8317 155.067 72.959 152.477 60.9545 147.473C48.95 142.469 38.0486 135.149 28.8728 125.932C19.6971 116.715 12.4266 105.781 7.47655 93.7536C2.52649 81.7267 -0.00621992 68.8426 0.0230243 55.8369C0.0522685 42.8311 2.6429 29.9585 7.64699 17.954C8.14657 16.7555 8.66922 15.5681 9.21453 14.3922C17.3471 -3.14373 40.2432 -3.02242 53.8808 10.6766L99.0601 56.0595L144.239 101.442Z" fill="#F2D293"/>
</svg>
