<svg width="64" height="58" viewBox="0 0 64 58" fill="none" xmlns="http://www.w3.org/2000/svg">
<g clip-path="url(#clip0_278_2054)">
<path fill-rule="evenodd" clip-rule="evenodd" d="M0 51.3406H7.55206V0.805484C7.55206 0.364264 7.91632 0 8.35754 0H33.9381C34.3793 0 34.7436 0.364264 34.7436 0.805484V19.7523H57.3792C57.8204 19.7523 58.1847 20.1166 58.1847 20.5578V51.3355H63.0432V58H0V51.3406ZM14.0165 7.60336H19.2495C19.4086 7.60336 19.542 7.73675 19.542 7.8958V14.2371C19.542 14.3961 19.4086 14.5295 19.2495 14.5295H14.0165C13.8574 14.5295 13.724 14.3961 13.724 14.2371V7.8958C13.724 7.73675 13.8574 7.60336 14.0165 7.60336ZM22.8819 39.1455H28.115C28.274 39.1455 28.4074 39.2789 28.4074 39.438V45.7792C28.4074 45.9383 28.274 46.0717 28.115 46.0717H22.8819C22.7229 46.0717 22.5895 45.9383 22.5895 45.7792V39.438C22.5895 39.2738 22.7229 39.1455 22.8819 39.1455ZM14.0165 39.1455H19.2495C19.4086 39.1455 19.542 39.2789 19.542 39.438V45.7792C19.542 45.9383 19.4086 46.0717 19.2495 46.0717H14.0165C13.8574 46.0717 13.724 45.9383 13.724 45.7792V39.438C13.724 39.2738 13.8574 39.1455 14.0165 39.1455ZM22.8819 28.628H28.115C28.274 28.628 28.4074 28.7614 28.4074 28.9205V35.2617C28.4074 35.4208 28.274 35.5542 28.115 35.5542H22.8819C22.7229 35.5542 22.5895 35.4208 22.5895 35.2617V28.9256C22.5895 28.7614 22.7229 28.628 22.8819 28.628ZM14.0165 28.628H19.2495C19.4086 28.628 19.542 28.7614 19.542 28.9205V35.2617C19.542 35.4208 19.4086 35.5542 19.2495 35.5542H14.0165C13.8574 35.5542 13.724 35.4208 13.724 35.2617V28.9256C13.724 28.7614 13.8574 28.628 14.0165 28.628ZM22.8819 18.1157H28.115C28.274 18.1157 28.4074 18.2491 28.4074 18.4081V24.7494C28.4074 24.9084 28.274 25.0418 28.115 25.0418H22.8819C22.7229 25.0418 22.5895 24.9084 22.5895 24.7494V18.4081C22.5895 18.2491 22.7229 18.1157 22.8819 18.1157ZM14.0165 18.1157H19.2495C19.4086 18.1157 19.542 18.2491 19.542 18.4081V24.7494C19.542 24.9084 19.4086 25.0418 19.2495 25.0418H14.0165C13.8574 25.0418 13.724 24.9084 13.724 24.7494V18.4081C13.724 18.2491 13.8574 18.1157 14.0165 18.1157ZM22.8819 7.60336H28.115C28.274 7.60336 28.4074 7.73675 28.4074 7.8958V14.2371C28.4074 14.3961 28.274 14.5295 28.115 14.5295H22.8819C22.7229 14.5295 22.5895 14.3961 22.5895 14.2371V7.8958C22.5895 7.73675 22.7229 7.60336 22.8819 7.60336ZM11.8873 3.75551H30.316C30.6341 3.75551 30.8957 4.06847 30.8957 4.44812V48.5035C30.8957 48.8832 30.6341 49.1961 30.316 49.1961H11.8873C11.5692 49.1961 11.3076 48.8832 11.3076 48.5035V4.44812C11.3076 4.06847 11.5692 3.75551 11.8873 3.75551ZM37.2524 27.4121H42.4854C42.6445 27.4121 42.7779 27.5455 42.7779 27.7046V34.0458C42.7779 34.2049 42.6445 34.3383 42.4854 34.3383H37.2524C37.0933 34.3383 36.9599 34.2049 36.9599 34.0458V27.7046C36.9599 27.5455 37.0933 27.4121 37.2524 27.4121ZM46.1178 39.1455H51.3509C51.5099 39.1455 51.6433 39.2789 51.6433 39.438V45.7792C51.6433 45.9383 51.5099 46.0717 51.3509 46.0717H46.1178C45.9588 46.0717 45.8254 45.9383 45.8254 45.7792V39.438C45.8254 39.2738 45.9588 39.1455 46.1178 39.1455ZM37.2524 39.1455H42.4854C42.6445 39.1455 42.7779 39.2789 42.7779 39.438V45.7792C42.7779 45.9383 42.6445 46.0717 42.4854 46.0717H37.2524C37.0933 46.0717 36.9599 45.9383 36.9599 45.7792V39.438C36.9599 39.2738 37.0933 39.1455 37.2524 39.1455ZM46.1178 27.4121H51.3509C51.5099 27.4121 51.6433 27.5455 51.6433 27.7046V34.0458C51.6433 34.2049 51.5099 34.3383 51.3509 34.3383H46.1178C45.9588 34.3383 45.8254 34.2049 45.8254 34.0458V27.7046C45.8254 27.5455 45.9588 27.4121 46.1178 27.4121ZM35.3284 23.5078H53.7571C54.0752 23.5078 54.3368 23.8208 54.3368 24.2004V48.5035C54.3368 48.8832 54.0752 49.1961 53.7571 49.1961H35.3284C35.0103 49.1961 34.7487 48.8832 34.7487 48.5035V24.2004C34.7487 23.8208 35.0103 23.5078 35.3284 23.5078Z" fill="#F8971D"/>
</g>
<defs>
<clipPath id="clip0_278_2054">
<rect width="63.0433" height="58" fill="white"/>
</clipPath>
</defs>
</svg>
