<svg width="67" height="67" viewBox="0 0 67 67" fill="none" xmlns="http://www.w3.org/2000/svg">
<circle cx="33.4997" cy="25.1237" r="11.1667" fill="#F8971D"/>
<circle cx="47.458" cy="25.125" r="8.375" fill="#F8971D"/>
<circle cx="19.542" cy="25.125" r="8.375" fill="#F8971D"/>
<path fill-rule="evenodd" clip-rule="evenodd" d="M49.0449 50.2513H57.5197C58.1113 50.2513 58.5675 49.7478 58.4671 49.1648C57.9017 45.8825 55.5568 36.293 47.4581 36.293C44.9844 36.293 43.0475 37.1876 41.5342 38.5239C45.7433 41.2547 47.9196 46.0365 49.0449 50.2513Z" fill="#F8971D"/>
<path fill-rule="evenodd" clip-rule="evenodd" d="M25.4654 38.5239C23.9521 37.1876 22.0152 36.293 19.5416 36.293C11.4429 36.293 9.0979 45.8825 8.53247 49.1648C8.43204 49.7478 8.88821 50.2513 9.47983 50.2513H17.9546C19.0799 46.0365 21.2563 41.2547 25.4654 38.5239Z" fill="#F8971D"/>
<path d="M33.5003 39.082C45.393 39.082 47.153 51.2412 47.4134 54.8401C47.4533 55.3909 47.0109 55.832 46.4587 55.832H20.542C19.9897 55.832 19.5474 55.3909 19.5872 54.8401C19.8477 51.2412 21.6077 39.082 33.5003 39.082Z" fill="#F8971D"/>
</svg>
