<svg width="62" height="67" viewBox="0 0 62 67" fill="none" xmlns="http://www.w3.org/2000/svg">
<path d="M31.4279 55.6152L32.5977 57.8246L32.5977 57.8246L31.4279 55.6152ZM30.5728 55.6152L31.7426 53.4058L31.7426 53.4058L30.5728 55.6152ZM46.5837 30.7096C46.5837 37.2578 43.3064 42.5306 39.4891 46.4546C35.6724 50.378 31.5116 52.742 30.258 53.4058L32.5977 57.8246C34.0782 57.0407 38.7454 54.3897 43.073 49.9411C47.4 45.4932 51.5837 39.0371 51.5837 30.7096H46.5837ZM31.0003 13.668C39.4277 13.668 46.5837 21.1117 46.5837 30.7096H51.5837C51.5837 18.7225 42.5472 8.66797 31.0003 8.66797V13.668ZM15.417 30.7096C15.417 21.1117 22.5729 13.668 31.0003 13.668V8.66797C19.4534 8.66797 10.417 18.7225 10.417 30.7096H15.417ZM31.7426 53.4058C30.489 52.742 26.3283 50.378 22.5115 46.4546C18.6942 42.5306 15.417 37.2578 15.417 30.7096H10.417C10.417 39.0371 14.6006 45.4932 18.9276 49.9411C23.2553 54.3897 27.9224 57.0407 29.4029 57.8246L31.7426 53.4058ZM30.258 53.4058C30.7197 53.1613 31.2809 53.1613 31.7426 53.4058L29.4029 57.8246C30.4048 58.3551 31.5959 58.355 32.5977 57.8246L30.258 53.4058ZM36.2503 30.7096C36.2503 34.1404 33.7208 36.5846 31.0003 36.5846V41.5846C36.8403 41.5846 41.2503 36.5296 41.2503 30.7096H36.2503ZM31.0003 24.8346C33.7208 24.8346 36.2503 27.2788 36.2503 30.7096H41.2503C41.2503 24.8897 36.8403 19.8346 31.0003 19.8346V24.8346ZM25.7503 30.7096C25.7503 27.2788 28.2799 24.8346 31.0003 24.8346V19.8346C25.1604 19.8346 20.7503 24.8897 20.7503 30.7096H25.7503ZM31.0003 36.5846C28.2799 36.5846 25.7503 34.1404 25.7503 30.7096H20.7503C20.7503 36.5296 25.1604 41.5846 31.0003 41.5846V36.5846Z" fill="#005BBF"/>
</svg>
