<svg width="165" height="156" viewBox="0 0 165 156" fill="none" xmlns="http://www.w3.org/2000/svg">
<path d="M153.931 102.177C167.965 115.47 167.997 137.658 150.008 145.651C148.431 146.352 146.834 147.016 145.219 147.643C132.465 152.593 118.802 155.126 105.011 155.097C91.2195 155.067 77.5691 152.477 64.8393 147.473C52.1095 142.469 40.5495 135.149 30.8194 125.932C21.0893 116.715 13.3795 105.781 8.13041 93.7536C2.88128 81.7267 0.195551 68.8426 0.226562 55.8368C0.257574 42.8311 3.00472 29.9585 8.31114 17.954C8.9833 16.4334 9.69485 14.9305 10.4449 13.4465C19.0014 -3.48196 42.5296 -3.35127 56.5629 9.94213L105.247 56.0595L153.931 102.177Z" fill="#F2D293"/>
</svg>
