<svg width="59" height="58" viewBox="0 0 59 58" fill="none" xmlns="http://www.w3.org/2000/svg">
<g clip-path="url(#clip0_278_2047)">
<path fill-rule="evenodd" clip-rule="evenodd" d="M56.2732 48.5558C56.657 47.443 56.8632 46.2487 56.8632 45.0112C56.8632 41.9989 55.6401 39.2697 53.6639 37.2935C51.6877 35.3173 48.9585 34.099 45.9462 34.099C42.934 34.099 40.2048 35.3221 38.2286 37.2935C36.2524 39.2697 35.0341 41.9989 35.0341 45.0112C35.0341 48.0234 36.2572 50.7526 38.2286 52.7288C40.2048 54.705 42.934 55.9233 45.9462 55.9233C48.7043 55.9233 51.2225 54.9017 53.1459 53.2133C54.5561 51.9758 55.6641 50.3305 56.2732 48.5558ZM41.4231 46.2295C40.4398 46.407 39.4805 46.7427 38.9577 48.0474C38.6171 48.8916 38.6986 49.9132 39.1255 50.839C40.2863 47.2991 44.3634 49.3904 41.7397 52.441C43.6583 52.537 44.8718 51.1939 45.0637 49.3856C45.1548 48.5318 45.2268 48.0714 45.4138 47.702C45.5146 47.5006 45.6537 47.3279 45.8407 47.1264C46.4691 46.4357 47.1694 45.8314 47.8553 45.1167C49.1455 43.7689 51.894 45.0112 52.9444 42.3731C53.285 41.5289 53.2034 40.5072 52.7765 39.5815C51.6158 43.1213 47.5387 41.03 50.1624 37.9794C48.2438 37.8835 47.0303 39.2265 46.8384 41.0348C46.7569 41.831 46.896 42.5074 46.0134 43.4139C45.3946 44.0327 44.7375 44.6658 44.0996 45.2702C43.8501 45.5148 43.6679 45.6587 43.452 45.7642C43.0683 45.9561 42.5982 46.0136 41.4279 46.2199L41.4231 46.2295ZM41.3703 11.4448L41.3559 11.488C38.2526 10.9076 33.7726 10.6054 29.048 10.663C24.2706 10.7158 19.2198 11.1331 15.0564 11.9868L15.0516 11.9677C11.4206 -5.10809 46.1621 -2.66664 41.3703 11.4448ZM21.1768 29.9404C19.0663 31.4177 16.8647 31.9645 14.7158 32.3626L17.7904 41.0732H33.5663C33.173 42.3155 32.9572 43.6393 32.9572 45.0112C32.9572 48.599 34.4105 51.8463 36.7608 54.1966C39.1111 56.5469 42.3584 58.0002 45.9462 58.0002C49.5341 58.0002 52.7813 56.5469 55.1317 54.1966C57.6019 51.7263 58.9353 48.5174 58.9353 45.0112C58.9353 41.4233 57.482 38.1761 55.1317 35.8258C52.7813 33.4754 49.5341 32.0221 45.9462 32.0221C44.8334 32.0221 43.7542 32.1612 42.723 32.425C40.8187 32.2331 38.8425 32.0796 37.4371 31.3506C36.7944 30.9524 36.2332 30.396 35.7152 29.691L35.624 28.252C36.1229 27.8443 36.6025 27.3646 37.0103 26.8322C37.936 25.6762 38.2909 24.4867 38.7322 22.9758C38.8234 22.6544 38.9097 22.3378 39.0152 22.0165C39.8882 21.9253 40.6508 20.9516 41.1113 19.7429C41.3607 19.0666 41.5574 18.3039 41.6102 17.6276C41.6821 16.9177 41.6102 16.2606 41.3607 15.8145C41.1641 15.4596 40.8619 15.2293 40.4542 15.1909C40.4254 14.836 40.5837 14.0829 40.7995 13.2819C37.8592 12.7543 33.5903 12.4809 29.048 12.5337C24.3857 12.5864 19.4596 12.9893 15.4257 13.8239L15.8191 15.709C15.5169 16.2078 15.4449 16.9897 15.5361 17.8243C15.6272 18.6397 15.8718 19.4935 16.2316 20.2082C16.692 21.1147 17.3492 21.7526 18.1166 21.7526C18.1886 21.9637 18.2749 22.1987 18.3468 22.429C18.9704 24.2612 19.4309 25.6475 20.5485 26.9617C20.8698 27.355 21.2248 27.71 21.5989 28.0265L21.5078 29.643C21.407 29.7389 21.2919 29.8396 21.1768 29.9404ZM34.5065 28.8132C32.5015 30.1514 31.2784 30.8853 28.6834 30.8229C26.1604 30.7846 24.8414 29.9308 22.822 28.6549C22.6685 37.0824 34.7127 37.5861 34.5065 28.8132ZM37.5139 22.7024C37.6194 22.3282 37.7441 21.9397 37.888 21.4744C37.9408 21.2778 38.1374 21.1387 38.3341 21.1723C38.9193 21.2778 39.5093 20.424 39.917 19.3927C40.1472 18.7692 40.3247 18.0977 40.3774 17.4933C40.4302 16.9225 40.3774 16.4285 40.2192 16.1263C40.0609 15.8337 39.6196 16.0016 39.2934 15.7186C37.6098 20.1842 22.9324 22.2035 16.9271 16.0543C16.716 16.3901 16.6776 16.9945 16.7496 17.6708C16.8407 18.3807 17.0518 19.1625 17.3731 19.7861C17.7473 20.5151 18.2269 21.014 18.7066 20.8893C18.9032 20.8365 19.1143 20.942 19.1862 21.1387C19.3301 21.532 19.4165 21.8342 19.522 22.1316C22.6302 31.2738 34.4585 31.9885 37.5139 22.7024ZM13.4975 43.8312C14.193 43.8312 14.759 44.3972 14.759 45.0927C14.759 45.7882 14.193 46.3542 13.4975 46.3542C12.802 46.3542 12.236 45.7882 12.236 45.0927C12.2408 44.3972 12.802 43.8312 13.4975 43.8312ZM11.152 33.0198C7.18525 33.9215 3.69815 35.8785 1.74115 44.4883L0 51.1508H9.43483V42.9055C9.43483 41.8934 10.2598 41.0684 11.2719 41.0684H13.2337C13.1522 37.8787 11.5597 34.5307 11.152 33.0198Z" fill="black"/>
</g>
<defs>
<clipPath id="clip0_278_2047">
<rect width="58.9401" height="58" fill="white"/>
</clipPath>
</defs>
</svg>
