<svg width="68" height="68" viewBox="0 0 68 68" fill="none" xmlns="http://www.w3.org/2000/svg">
<path fill-rule="evenodd" clip-rule="evenodd" d="M59.5 34C59.5 48.0833 48.0833 59.5 34 59.5C19.9167 59.5 8.5 48.0833 8.5 34C8.5 19.9167 19.9167 8.5 34 8.5C48.0833 8.5 59.5 19.9167 59.5 34ZM36.8333 51C36.8333 52.5648 35.5648 53.8333 34 53.8333C32.4352 53.8333 31.1667 52.5648 31.1667 51C31.1667 49.4352 32.4352 48.1667 34 48.1667C35.5648 48.1667 36.8333 49.4352 36.8333 51ZM34 15C28.201 15 23.5 19.701 23.5 25.5H27.5C27.5 21.9101 30.4101 19 34 19H34.2672C37.7095 19 40.5 21.7905 40.5 25.2328V26.6868C40.5 28.5013 39.3389 30.1122 37.6175 30.686C34.2628 31.8042 32 34.9437 32 38.4799V45.3333H36V38.4799C36 36.6654 37.1611 35.0545 38.8825 34.4807C42.2372 33.3625 44.5 30.223 44.5 26.6868V25.2328C44.5 19.5814 39.9186 15 34.2672 15H34Z" fill="#F8971D"/>
</svg>
